# xmcd CD database file
#
# Track frame offsets:
#	150
#	21473
#	42518
#
# Disc length: 714 seconds
#
# Revision: 0
# Processed by: cddbd v1.5.1PL0 Copyright (c) Steve Scherf et al.
# Submitted via: CDex 1.51
#
DISCID=2302c803
DTITLE=LUNKHEAD - プリズム
DYEAR=2004
DGENRE=Vocal
TTITLE0=プリズム
TTITLE1=いつかの電車の音がする
TTITLE2=桜子
EXTD=YEAR: 2004
EXTT0=
EXTT1=
EXTT2=
PLAYORDER=
